# xmcd
#
# Track frame offsets: 
#        150
#        17298
#        29300
#        44496
#        64853
#        75384
#        108492
#        121755
#        141362
#        150789
#        163827
#        192000
#        202967
#        215870
#        232808
#        247787
#        261229
#        277115
#
# Disc length: 4072 seconds
#
# Revision: 5
# Processed by: cddbd v1.5.2PL0 Copyright (c) Steve Scherf et al.
# Submitted via: ExactAudioCopyFreeDBPlugin 1.0
#
DISCID=ec0fe612
DTITLE=Various Artist - Making Singles, Drinking Doubles
DYEAR=2002
DGENRE=Alternative Country
TTITLE0=Waco Brothers - The Harder They Come
TTITLE1=Kelly Hogan - 1,000,001
TTITLE2=Ryan Adams - Goodbye Honey
TTITLE3=Andre Williams and 2 Star Tabernacle - Lily White Mama and Jet Bla
TTITLE3=ck Daddy
TTITLE4=Moonshine Willy - Complicated Games
TTITLE5=The Meat Purveyors - The Madonna Trilogy
TTITLE6=Neko Case and The Sadies - Rated X
TTITLE7=Rex Hobart and The Misery Boys - Every Rose Has It's Thorn
TTITLE8=The Sadies - Little Sadie
TTITLE9=Moonshine Willy - George Set Me Strait
TTITLE10=Volebeats - Maggot Brain
TTITLE11=Kelly Hogan and The Mellowcremes - Hanky Panky Woman
TTITLE12=Ryan Adams - To Be Young (Is To Be Sad, Is To Be High)
TTITLE13=Rex Hobart and Misery Boys - Wasted Days And Wasted Nights
TTITLE14=Kelly Hogan and John Wesley Harding - It's Only Make Believe
TTITLE15=Andre Williams and 2 Star Tabernacle - Ramblin' Man
TTITLE16=Moonshine Willy - Alone
TTITLE17=Jon Langford - Nashville Radio
EXTD=
EXTT0=
EXTT1=
EXTT2=
EXTT3=
EXTT4=
EXTT5=
EXTT6=
EXTT7=
EXTT8=
EXTT9=
EXTT10=
EXTT11=
EXTT12=
EXTT13=
EXTT14=
EXTT15=
EXTT16=
EXTT17=
PLAYORDER=
